HIERARCHY
ROOT Hips
{
	OFFSET 0.000000 0.000000 0.000000
	CHANNELS 6 Xposition Yposition Zposition Zrotation Yrotation Xrotation 
	JOINT LHipJoint
	{
		OFFSET 0.000000 0.000000 0.000000
		CHANNELS 3 Zrotation Yrotation Xrotation
		JOINT LeftUpLeg
		{
			OFFSET 1.363060 -1.794630 0.839290
			CHANNELS 3 Zrotation Yrotation Xrotation
			JOINT LeftLeg
			{
				OFFSET 2.448110 -6.726130 0.000000
				CHANNELS 3 Zrotation Yrotation Xrotation
				JOINT LeftFoot
				{
					OFFSET 2.562200 -7.039590 0.000000
					CHANNELS 3 Zrotation Yrotation Xrotation
					JOINT LeftToeBase
					{
						OFFSET 0.157640 -0.433110 2.322550
						CHANNELS 3 Zrotation Yrotation Xrotation
						End Site
						{
							OFFSET 0.000000 0.000000 0.000000
						}
					}
				}
			}
		}
	}
	JOINT RHipJoint
	{
		OFFSET 0.000000 0.000000 0.000000
		CHANNELS 3 Zrotation Yrotation Xrotation
		JOINT RightUpLeg
		{
			OFFSET -1.305520 -1.794630 0.839290
			CHANNELS 3 Zrotation Yrotation Xrotation
			JOINT RightLeg
			{
				OFFSET -2.542530 -6.985550 0.000000
				CHANNELS 3 Zrotation Yrotation Xrotation
				JOINT RightFoot
				{
					OFFSET -2.568260 -7.056230 0.000000
					CHANNELS 3 Zrotation Yrotation Xrotation
					JOINT RightToeBase
					{
						OFFSET -0.164730 -0.452590 2.363150
						CHANNELS 3 Zrotation Yrotation Xrotation
						End Site
						{
							OFFSET 0.000000 0.000000 0.000000
						}
					}
				}
			}
		}
	}
}
MOTION
Frames: 16
Frame Time: 0.008333
2.264806 16.853304 0.273592 169.151127 -77.785787 -162.091437 -10.058792 1.161492 3.896476 -12.905502 3.749084 -35.005861 -2.464920 -0.160975 13.325557 0.653686 5.591084 6.290772 1.818700 -0.000000 -20.092900 9.798571 -5.012038 1.976600 1.790241 -2.944591 11.784658 2.046820 -1.153858 14.059018 1.399198 15.374266 4.799432 2.657700 -0.000000 -68.578000
2.091187 16.877088 0.276861 167.535232 -77.895862 -160.544106 -9.988440 1.246095 3.948734 -13.323753 3.476256 -34.499970 -2.468269 -0.148023 13.791199 0.668635 5.703167 5.970917 1.811500 -0.000000 -19.360399 9.969748 -5.143683 2.077229 1.188348 -2.722543 10.916833 1.821158 -1.406244 16.223727 1.337527 15.559272 6.387273 3.114900 0.000000 -71.102300
1.921491 16.901206 0.281999 166.021918 -77.997254 -159.097337 -9.910132 1.323391 4.000087 -13.710663 3.170271 -33.910389 -2.475141 -0.149037 14.163018 0.689192 5.829338 5.507766 1.790900 -0.000001 -18.477000 10.150595 -5.258648 2.159752 0.610543 -2.558996 9.899634 1.575449 -1.658225 18.601639 1.256017 15.791792 8.147322 3.649299 0.000000 -73.425100
1.756005 16.925115 0.288926 164.601449 -78.088008 -157.739587 -9.825058 1.394804 4.045873 -14.080502 2.854539 -33.247056 -2.488249 -0.162901 14.431253 0.713325 5.958019 4.935446 1.756200 0.000000 -17.493300 10.341190 -5.352054 2.223317 0.051502 -2.466706 8.736485 1.311255 -1.902118 21.173744 1.150739 16.062175 10.081135 4.266600 0.000000 -75.415700
1.594823 16.948329 0.297348 163.255551 -78.167874 -156.450543 -9.733965 1.461976 4.081804 -14.447932 2.553458 -32.523068 -2.509954 -0.188172 14.590982 0.738415 6.075271 4.291241 1.707500 0.000000 -16.467400 10.541212 -5.419199 2.268167 -0.492085 -2.452321 7.437849 1.033135 -2.129931 23.910135 1.018670 16.343565 12.171137 4.960300 0.000000 -76.933500
1.437872 16.970452 0.306978 161.965601 -78.237982 -155.211002 -9.637601 1.526586 4.103993 -14.825166 2.291545 -31.753293 -2.541896 -0.222904 14.644659 0.761350 6.164613 3.610961 1.644900 -0.000000 -15.457801 10.749084 -5.455927 2.295038 -1.019380 -2.514962 6.022382 0.748772 -2.335005 26.773694 0.859003 16.588939 14.375384 5.704700 0.000001 -77.847600
1.285192 16.991204 0.317450 160.710597 -78.297906 -154.001394 -9.536829 1.590092 4.108500 -15.220367 2.089768 -30.952844 -2.584920 -0.264432 14.600199 0.779258 6.210849 2.925964 1.569600 -0.000000 -14.516300 10.961924 -5.457352 2.302512 -1.528359 -2.650414 4.513136 0.467597 -2.513546 29.726169 0.674214 16.735795 16.627641 6.450900 -0.000000 -78.068500
1.136501 17.010449 0.328493 159.478325 -78.352669 -152.812955 -9.433041 1.653661 4.093734 -15.635362 1.965137 -30.134264 -2.638627 -0.310539 14.471931 0.789142 6.199211 2.261738 1.483100 0.000001 -13.682800 11.176198 -5.423576 2.291305 -2.012544 -2.851194 2.936608 0.199479 -2.665733 32.729683 0.469595 16.706600 18.841173 7.126500 -0.000001 -77.578000
0.991466 17.028101 0.339784 158.245237 -78.406772 -151.625205 -9.326356 1.718410 4.060270 -16.070416 1.921130 -29.304995 -2.701905 -0.359291 14.274775 0.789510 6.124658 1.636969 1.388899 -0.000000 -12.981400 11.389833 -5.356178 2.260428 -2.471742 -3.115598 1.314765 -0.048220 -2.795448 35.753032 0.252261 16.423740 20.917141 7.645199 -0.000000 -76.460400
0.849955 17.044246 0.351315 157.022524 -78.463559 -150.455313 -9.220437 1.784409 4.007975 -16.514203 1.963065 -28.475578 -2.772261 -0.407759 14.032656 0.779148 5.979561 1.058965 1.288300 -0.000000 -12.417200 11.596766 -5.257866 2.209290 -2.892691 -3.430302 -0.327930 -0.271979 -2.908973 38.766486 0.029617 15.804215 22.752498 7.913801 -0.000000 -74.877800
0.711522 17.059042 0.363309 155.856794 -78.527126 -149.350505 -9.122293 1.851135 3.936529 -16.947054 2.097834 -27.660990 -2.846182 -0.452530 13.778917 0.757113 5.753513 0.522388 1.180700 0.000000 -11.976000 11.788417 -5.133445 2.138933 -3.253217 -3.774830 -1.970439 -0.472514 -3.013110 41.743907 -0.192156 14.779080 24.248357 7.851799 0.000000 -73.034300
0.575947 17.072566 0.375384 154.671832 -78.600563 -148.235872 -9.025982 1.918330 3.854996 -17.370061 2.274472 -26.847300 -2.921113 -0.494689 13.507654 0.728877 5.488239 0.035158 1.076200 -0.000000 -11.645900 11.970699 -4.985655 2.046765 -3.575156 -4.160286 -3.611598 -0.654165 -3.114768 44.671213 -0.410159 13.335820 25.333334 7.429700 -0.000000 -71.166600
0.442994 17.084992 0.387684 153.492255 -78.686545 -147.135915 -8.935260 1.984237 3.767124 -17.765575 2.471019 -26.036999 -2.993196 -0.532889 13.235637 0.697347 5.198998 -0.413626 0.976100 0.000000 -11.398500 12.138782 -4.818063 1.934103 -3.844665 -4.567893 -5.238941 -0.822098 -3.218691 47.526871 -0.622589 11.474875 25.944325 6.646600 0.000000 -69.409300
0.312291 17.096619 0.400960 152.412739 -78.790804 -146.140334 -8.861647 2.046737 3.672784 -18.104987 2.693890 -25.250244 -3.058223 -0.564172 12.999402 0.662638 4.875944 -0.848229 0.876400 0.000001 -11.193000 12.281287 -4.636566 1.806278 -4.026457 -4.965922 -6.842580 -0.981102 -3.326799 50.288564 -0.827794 9.238299 26.032414 5.546500 -0.000000 -67.767900
0.183725 17.107659 0.415310 151.432192 -78.916781 -145.246611 -8.806158 2.104280 3.577786 -18.379356 2.912424 -24.484248 -3.113648 -0.589100 12.801025 0.628633 4.543905 -1.277418 0.780101 0.000000 -11.003200 12.397609 -4.444474 1.666010 -4.118710 -5.345950 -8.423212 -1.134760 -3.439622 52.937435 -1.025671 6.721066 25.589579 4.226100 0.000001 -66.192300
0.057154 17.117935 0.430229 150.467358 -79.063562 -144.370963 -8.759564 2.156094 3.490525 -18.600092 3.068349 -23.708917 -3.158996 -0.611274 12.608871 0.601967 4.254266 -1.698123 0.694400 0.000000 -10.819000 12.495859 -4.242263 1.512678 -4.148713 -5.713115 -9.978140 -1.284219 -3.557410 55.452039 -1.215524 4.057458 24.638273 2.813400 0.000000 -64.639300
